<?xml version="1.0" encoding="utf-8"?>
<!-- Generator: $$$/GeneralStr/196=Adobe Illustrator 27.6.0, SVG Export Plug-In . SVG Version: 6.00 Build 0)  -->
<svg version="1.1" xmlns="http://www.w3.org/2000/svg" xmlns:xlink="http://www.w3.org/1999/xlink" x="0px" y="0px"
	 viewBox="0 0 381.3 176.6" enable-background="new 0 0 381.3 176.6" xml:space="preserve">
<g id="info">
</g>
<g id="logo">
	<g>
		<linearGradient id="SVGID_1_" gradientUnits="userSpaceOnUse" x1="110.1018" y1="71.7158" x2="32.2034" y2="88.8155">
			<stop  offset="0.2411" style="stop-color:#70BD95"/>
			<stop  offset="0.4571" style="stop-color:#6EBB94"/>
			<stop  offset="0.5784" style="stop-color:#68B28F"/>
			<stop  offset="0.6763" style="stop-color:#5EA586"/>
			<stop  offset="0.7616" style="stop-color:#50917B"/>
			<stop  offset="0.8388" style="stop-color:#3D776B"/>
			<stop  offset="0.9102" style="stop-color:#265858"/>
			<stop  offset="0.9757" style="stop-color:#0B3442"/>
			<stop  offset="1" style="stop-color:#002439"/>
		</linearGradient>
		<path fill="url(#SVGID_1_)" d="M117.2,66.2l17.4-26.4C61.9,29.3,22.4,64.6,43.5,123C37.6,83.7,61.9,61.2,117.2,66.2z"/>
		
			<linearGradient id="SVGID_00000109011594015301060260000000921666067545816483_" gradientUnits="userSpaceOnUse" x1="115.2211" y1="93.6257" x2="37.4629" y2="110.6947">
			<stop  offset="0.2411" style="stop-color:#70BD95"/>
			<stop  offset="0.4571" style="stop-color:#6EBB94"/>
			<stop  offset="0.5784" style="stop-color:#68B28F"/>
			<stop  offset="0.6763" style="stop-color:#5EA586"/>
			<stop  offset="0.7616" style="stop-color:#50917B"/>
			<stop  offset="0.8388" style="stop-color:#3D776B"/>
			<stop  offset="0.9102" style="stop-color:#265858"/>
			<stop  offset="0.9757" style="stop-color:#0B3442"/>
			<stop  offset="1" style="stop-color:#002439"/>
		</linearGradient>
		<path fill="url(#SVGID_00000109011594015301060260000000921666067545816483_)" d="M48.8,131c2.4-31.4,20.8-40.7,51.3-39l9.9-15
			C69.5,73,41.3,90.4,48.8,131z"/>
		
			<linearGradient id="SVGID_00000101808982275795655610000009360087481008201358_" gradientUnits="userSpaceOnUse" x1="118.6794" y1="109.5762" x2="40.9268" y2="126.6439">
			<stop  offset="0.2411" style="stop-color:#70BD95"/>
			<stop  offset="0.4571" style="stop-color:#6EBB94"/>
			<stop  offset="0.5784" style="stop-color:#68B28F"/>
			<stop  offset="0.6763" style="stop-color:#5EA586"/>
			<stop  offset="0.7616" style="stop-color:#50917B"/>
			<stop  offset="0.8388" style="stop-color:#3D776B"/>
			<stop  offset="0.9102" style="stop-color:#265858"/>
			<stop  offset="0.9757" style="stop-color:#0B3442"/>
			<stop  offset="1" style="stop-color:#002439"/>
		</linearGradient>
		<path fill="url(#SVGID_00000101808982275795655610000009360087481008201358_)" d="M53.3,138.8c5.3-17.9,15.6-26.3,32.8-24.5
			l7.2-10.8C69.8,100.5,53.3,111.5,53.3,138.8z"/>
	</g>
	<g>
		<path fill="#002439" d="M138.5,88.4c-0.4-0.5-0.6-1-0.6-1.6c0-2.2,1.8-3.8,6.6-3.8c2.5,0,4.5,0.8,6,1.6c0.8,0.5,1.5,1,2.2,1.6
			l4.5-6.8c-0.5-0.3-1.3-0.8-1.9-1.1c-2.5-1.3-6.2-2.6-11.1-2.6c-10.1,0-16.1,5.1-16.1,11.1c0,0.8,0.1,1.5,0.2,2.1
			c2.3,10.8,21.9,8.6,21.9,14.6c0,2.4-2.2,4.3-7.3,4.3c-1.2,0-2.2-0.1-3.2-0.3c-1.8-0.4-3.4-1-4.5-1.7c-1.1-0.6-2-1.3-2.7-2.1
			l-6.3,5.4c1.1,1.1,2.5,2.1,4.2,3c0.9,0.5,2,1,3.3,1.4c2.5,0.9,5.7,1.5,9.6,1.5c10.4,0,16.7-5.4,16.7-11.6
			C160,91.6,142,92.8,138.5,88.4z"/>
		<polygon fill="#002439" points="195.5,105.7 211,89.2 211,114.4 219.1,114.4 219.1,76.5 211.8,76.5 195.5,93.9 179.1,76.5 
			171.8,76.5 171.8,114.4 179.9,114.4 179.9,89.2 		"/>
		<rect x="232.6" y="76.5" fill="#002439" width="8.1" height="37.9"/>
	</g>
	<g display="none">
		<g display="inline">
			<g>
			</g>
		</g>
	</g>
	<g>
		<path fill="#002439" d="M135.1,126.9v8.1c0,1.1-0.4,2-1.1,2.7c-0.7,0.7-1.6,1.1-2.8,1.2l-0.4,0c-1.3,0-2.3-0.3-3.1-1
			c-0.8-0.7-1.2-1.7-1.2-2.9v-8.1h1.5v8c0,0.9,0.2,1.5,0.7,2c0.5,0.5,1.1,0.7,2,0.7c0.9,0,1.6-0.2,2-0.7c0.5-0.5,0.7-1.1,0.7-2v-8
			H135.1z"/>
		<path fill="#002439" d="M147.7,138.8h-1.6l-6-9.1v9.1h-1.6v-11.8h1.6l6,9.2v-9.2h1.6V138.8z"/>
		<path fill="#002439" d="M158.2,133.3H153v4.2h6v1.3h-7.5v-11.8h7.4v1.3H153v3.8h5.1V133.3z"/>
		<path fill="#002439" d="M169.1,126.9l3.9,9.7l3.9-9.7h2v11.8h-1.6v-4.6l0.1-5l-3.9,9.6h-1.2l-3.9-9.6l0.2,5v4.6h-1.6v-11.8H169.1z
			"/>
		<path fill="#002439" d="M189.1,135.7h-5l-1.1,3.1h-1.6l4.5-11.8h1.4l4.5,11.8h-1.6L189.1,135.7z M184.6,134.4h4l-2-5.5
			L184.6,134.4z"/>
		<path fill="#002439" d="M198.8,134H196v4.8h-1.6v-11.8h3.9c1.3,0,2.4,0.3,3.1,0.9c0.7,0.6,1.1,1.5,1.1,2.7c0,0.7-0.2,1.4-0.6,1.9
			c-0.4,0.5-1,1-1.7,1.2l2.8,5v0.1h-1.7L198.8,134z M196,132.7h2.4c0.8,0,1.4-0.2,1.9-0.6s0.7-0.9,0.7-1.6c0-0.7-0.2-1.3-0.7-1.7
			c-0.4-0.4-1.1-0.6-1.9-0.6H196V132.7z"/>
		<path fill="#002439" d="M214.8,133.2c0,1.1-0.2,2.1-0.5,3c-0.4,0.8-0.9,1.5-1.5,1.9l2.1,1.7l-1.1,1l-2.5-2
			c-0.4,0.1-0.8,0.1-1.2,0.1c-0.9,0-1.8-0.2-2.5-0.7c-0.7-0.5-1.3-1.1-1.7-2s-0.6-1.8-0.6-2.9v-0.9c0-1.1,0.2-2.1,0.6-3
			c0.4-0.9,1-1.5,1.7-2c0.7-0.5,1.6-0.7,2.5-0.7c1,0,1.8,0.2,2.5,0.7c0.7,0.5,1.3,1.1,1.7,2c0.4,0.9,0.6,1.9,0.6,3V133.2z
			 M213.2,132.5c0-1.4-0.3-2.5-0.8-3.2c-0.6-0.8-1.3-1.1-2.4-1.1c-1,0-1.8,0.4-2.3,1.1c-0.6,0.8-0.9,1.8-0.9,3.1v0.9
			c0,1.4,0.3,2.4,0.9,3.2c0.6,0.8,1.4,1.2,2.4,1.2c1,0,1.8-0.4,2.3-1.1c0.6-0.7,0.8-1.8,0.9-3.2V132.5z"/>
		<path fill="#002439" d="M226.5,126.9v8.1c0,1.1-0.4,2-1.1,2.7c-0.7,0.7-1.6,1.1-2.8,1.2l-0.4,0c-1.3,0-2.3-0.3-3.1-1
			c-0.8-0.7-1.2-1.7-1.2-2.9v-8.1h1.5v8c0,0.9,0.2,1.5,0.7,2c0.5,0.5,1.1,0.7,2,0.7c0.9,0,1.6-0.2,2-0.7c0.5-0.5,0.7-1.1,0.7-2v-8
			H226.5z"/>
		<path fill="#002439" d="M236.7,133.3h-5.1v4.2h6v1.3H230v-11.8h7.4v1.3h-5.9v3.8h5.1V133.3z"/>
		<path fill="#002439" d="M245.6,138.8v-11.8h3.3c1,0,1.9,0.2,2.7,0.7c0.8,0.5,1.4,1.1,1.8,1.9c0.4,0.8,0.6,1.8,0.7,2.9v0.8
			c0,1.1-0.2,2.1-0.6,2.9c-0.4,0.8-1,1.5-1.8,1.9c-0.8,0.5-1.7,0.7-2.8,0.7H245.6z M247.1,128.2v9.3h1.6c1.2,0,2.1-0.4,2.8-1.1
			s1-1.8,1-3.2v-0.7c0-1.3-0.3-2.4-0.9-3.1c-0.6-0.7-1.5-1.1-2.7-1.1H247.1z"/>
		<path fill="#002439" d="M264.2,133.3h-5.1v4.2h6v1.3h-7.5v-11.8h7.4v1.3h-5.9v3.8h5.1V133.3z"/>
		<path fill="#002439" d="M280,133.7h-4.5v2.8h5.3v2.2h-8.2v-11.8h8.2v2.2h-5.3v2.5h4.5V133.7z"/>
		<path fill="#002439" d="M293,133.1c0,1.1-0.2,2.1-0.5,2.9c-0.4,0.8-0.9,1.5-1.5,2l1.9,1.5l-1.8,1.5l-2.5-2.1c-0.2,0-0.5,0-0.7,0
			c-1,0-1.9-0.2-2.7-0.7c-0.8-0.5-1.4-1.1-1.8-2c-0.4-0.9-0.7-1.9-0.7-3v-0.6c0-1.2,0.2-2.2,0.6-3.1c0.4-0.9,1-1.6,1.8-2.1
			c0.8-0.5,1.7-0.7,2.7-0.7c1,0,1.9,0.2,2.7,0.7c0.8,0.5,1.4,1.2,1.8,2s0.7,1.9,0.7,3V133.1z M290.1,132.6c0-1.2-0.2-2.1-0.6-2.7
			c-0.4-0.6-1-0.9-1.7-0.9c-0.8,0-1.3,0.3-1.7,0.9c-0.4,0.6-0.6,1.5-0.6,2.6v0.5c0,1.2,0.2,2.1,0.6,2.7c0.4,0.6,1,0.9,1.7,0.9
			c0.7,0,1.3-0.3,1.7-0.9c0.4-0.6,0.6-1.5,0.6-2.6V132.6z"/>
		<path fill="#002439" d="M304.8,126.9v7.8c0,0.9-0.2,1.6-0.6,2.3c-0.4,0.6-0.9,1.1-1.6,1.5c-0.7,0.3-1.5,0.5-2.5,0.5
			c-1.4,0-2.6-0.4-3.4-1.1c-0.8-0.7-1.3-1.8-1.3-3.1v-7.8h2.9v7.9c0,1.3,0.6,1.9,1.8,1.9c0.6,0,1-0.2,1.3-0.5
			c0.3-0.3,0.5-0.9,0.5-1.6v-7.7H304.8z"/>
		<path fill="#002439" d="M314.1,136.6h-3.9l-0.7,2.2h-3.1l4.3-11.8h2.7l4.4,11.8h-3.1L314.1,136.6z M310.9,134.3h2.5l-1.3-4.1
			L310.9,134.3z"/>
		<path fill="#002439" d="M329.6,138.8h-2.8l-4.2-7.4v7.4h-2.9v-11.8h2.9l4.2,7.4v-7.4h2.8V138.8z"/>
		<path fill="#002439" d="M338.5,135.6c0-0.4-0.1-0.7-0.4-1c-0.3-0.2-0.8-0.5-1.6-0.7c-0.7-0.2-1.4-0.5-1.8-0.7
			c-1.5-0.8-2.3-1.8-2.3-3.1c0-0.7,0.2-1.2,0.6-1.7c0.4-0.5,0.9-0.9,1.6-1.2c0.7-0.3,1.5-0.4,2.4-0.4c0.9,0,1.6,0.2,2.3,0.5
			c0.7,0.3,1.2,0.7,1.6,1.3c0.4,0.6,0.6,1.2,0.6,1.9h-2.8c0-0.5-0.1-0.9-0.4-1.1c-0.3-0.3-0.7-0.4-1.2-0.4c-0.5,0-0.9,0.1-1.2,0.3
			s-0.4,0.5-0.4,0.9c0,0.3,0.2,0.6,0.5,0.8c0.3,0.2,0.9,0.5,1.7,0.8c0.8,0.3,1.5,0.5,2,0.9c1.3,0.7,1.9,1.8,1.9,3.1
			c0,1-0.4,1.8-1.2,2.4c-0.8,0.6-1.9,0.9-3.2,0.9c-1,0-1.8-0.2-2.6-0.5c-0.8-0.3-1.4-0.8-1.8-1.4c-0.4-0.6-0.6-1.3-0.6-2.1h2.9
			c0,0.6,0.2,1.1,0.5,1.4c0.3,0.3,0.9,0.5,1.6,0.5c0.5,0,0.8-0.1,1.1-0.3C338.4,136.3,338.5,136,338.5,135.6z"/>
	</g>
</g>
</svg>
